<svg width="354" height="512" xmlns="http://www.w3.org/2000/svg" xml:space="preserve" version="1.1">

 <g>
  <title>Layer 1</title>
  <g id="svg_1">
   <polygon id="svg_2" fill="#A7A5AC" points="173.39752960205078,430.3450012207031 164.39453887939453,430.3450012207031 156.3155288696289,470.73699951171875 156.3155288696289,471.1719970703125 165.23552703857422,471.1719970703125 "/>
   <polygon id="svg_3" fill="#A7A5AC" points="190.16852569580078,430.3450012207031 181.16553497314453,430.3450012207031 189.32752227783203,471.1719970703125 198.33454132080078,471.1719970703125 "/>
  </g>
  <path id="svg_4" fill="#FFE682" d="m208.19953,432.552c3.044,0 5.948,-1.25 8.033,-3.468c51.987,-55.281 137.601,-160.303 137.601,-252.532c0,-97.508 -79.045,-176.552 -176.552,-176.552s-176.552,79.044 -176.552,176.552c0,92.228 85.614,197.251 137.6,252.532c2.086,2.218 4.989,3.468 8.033,3.468l61.837,0z"/>
  <g id="svg_5">
   <path id="svg_6" fill="#FFC850" d="m68.42853,344.276l217.706,0c8.039,-11.368 15.821,-23.192 23.09,-35.31l-263.886,0c7.269,12.118 15.051,23.942 23.09,35.31z"/>
   <path id="svg_7" fill="#FFC850" d="m0.72953,176.552c0,8.73 0.775,17.576 2.208,26.483l348.687,0c1.433,-8.907 2.208,-17.752 2.208,-26.483c0,-21.773 -4.13,-42.536 -11.338,-61.793l-330.427,0c-7.208,19.257 -11.338,40.019 -11.338,61.793z"/>
  </g>
  <path id="svg_8" fill="#FF9164" d="m194.93653,512l-35.31,0c-4.875,0 -8.828,-3.953 -8.828,-8.828l0,-26.482c0,-4.875 3.953,-8.828 8.828,-8.828l35.31,0c4.875,0 8.828,3.953 8.828,8.828l0,26.483c0,4.874 -3.953,8.827 -8.828,8.827z"/>
  <path id="svg_9" fill="#96E178" d="m205.81953,432.552c41.259,-54.264 112.703,-161.805 112.703,-256c0,-97.508 -63.235,-176.552 -141.241,-176.552s-141.241,79.044 -141.241,176.552c0,94.195 71.444,201.736 112.703,256l57.076,0z"/>
  <g id="svg_10">
   <path id="svg_11" fill="#8CCD73" d="m269.25253,335.448l-183.942,0c6.711,12.31 13.695,24.11 20.697,35.31l142.547,0c7.003,-11.199 13.987,-23 20.698,-35.31z"/>
   <path id="svg_12" fill="#8CCD73" d="m304.26953,256c8.714,-26.572 14.253,-53.508 14.253,-79.448c0,-2.98 -0.239,-5.884 -0.356,-8.828l-281.77,0c-0.117,2.944 -0.356,5.847 -0.356,8.828c0,25.94 5.539,52.876 14.253,79.448l253.976,0z"/>
  </g>
  <path id="svg_13" fill="#FFC850" d="m196.90153,432.552c28.365,-54.264 77.483,-161.805 77.483,-256c0,-97.508 -43.474,-176.552 -97.103,-176.552s-97.103,79.044 -97.103,176.552c0,94.195 49.118,201.736 77.483,256l39.24,0z"/>
  <g id="svg_14">
   <path id="svg_15" fill="#FFAA50" d="m249.79953,308.966l-145.036,0c4.003,12.13 8.274,23.933 12.7,35.31l119.636,0c4.427,-11.378 8.696,-23.18 12.7,-35.31z"/>
   <path id="svg_16" fill="#FFAA50" d="m80.17853,176.552c0,8.724 0.546,17.583 1.333,26.483l191.54,0c0.787,-8.899 1.333,-17.759 1.333,-26.483c0,-21.773 -2.272,-42.536 -6.236,-61.793l-181.735,0c-3.963,19.257 -6.235,40.019 -6.235,61.793z"/>
  </g>
  <path id="svg_17" fill="#FF6464" d="m184.41653,432.552c10.315,-54.264 28.175,-161.805 28.175,-256c0,-97.508 -15.809,-176.552 -35.31,-176.552s-35.31,79.044 -35.31,176.552c0,94.195 17.86,201.736 28.175,256l14.27,0z"/>
  <g id="svg_18">
   <path id="svg_19" fill="#D2555A" d="m141.97153,176.552c0,17.341 0.614,35.136 1.665,52.966l67.289,0c1.053,-17.83 1.665,-35.625 1.665,-52.966c0,-12.094 -0.246,-23.9 -0.71,-35.31l-69.203,0c-0.46,11.41 -0.706,23.216 -0.706,35.31z"/>
   <path id="svg_20" fill="#D2555A" d="m158.11253,361.931l38.338,0c1.706,-11.262 3.383,-23.073 4.986,-35.31l-48.311,0c1.604,12.237 3.281,24.048 4.987,35.31z"/>
  </g>
  <g id="svg_21"/>
  <g id="svg_22"/>
  <g id="svg_23"/>
  <g id="svg_24"/>
  <g id="svg_25"/>
  <g id="svg_26"/>
  <g id="svg_27"/>
  <g id="svg_28"/>
  <g id="svg_29"/>
  <g id="svg_30"/>
  <g id="svg_31"/>
  <g id="svg_32"/>
  <g id="svg_33"/>
  <g id="svg_34"/>
  <g id="svg_35"/>
 </g>
</svg>