<svg width="459" height="170" viewBox="0 0 459 170" fill="none" xmlns="http://www.w3.org/2000/svg">
<path d="M43.8 4.90002C39.5606 5.37106 46.6963 37.5449 47.1333 39.8334C50.0925 55.33 54.1804 71.7675 52.2 87.6111C51.6241 92.2182 49.4974 98.4154 44.6 100.011C40.4092 101.377 36.5644 100.254 32.6889 98.4111C32.1601 98.1597 19.4056 91.0589 24.2 90.1" stroke="black" stroke-width="8" stroke-linecap="round"/>
<path d="M66.6 27.7C66.7658 29.3587 67.5184 31.0972 67.8 32.7667C68.6459 37.782 69.3566 42.799 70.5777 47.7445C72.6548 56.1565 75.5241 64.3482 79.4 72.1" stroke="black" stroke-width="8" stroke-linecap="round"/>
<path d="M91 24.1C92.6393 40.4925 93.6133 56.1214 102.6 70.5" stroke="black" stroke-width="8" stroke-linecap="round"/>
<path d="M50.2 56.5C41.5766 59.8586 33.1291 61.973 24.2 58.6778C17.8821 56.3461 10.2841 52.9305 6.44444 47.1C3.2149 42.1959 5.09038 35.5988 8.42222 31.2555C13.8421 24.1904 21.508 19.4687 30.2 17.7C54.1189 12.8328 70.9089 33.629 93.0222 37.7889C106.417 40.3088 129 31.3324 129 15.3" stroke="black" stroke-width="8" stroke-linecap="round"/>
<path d="M126.6 62.5C125.443 62.6286 125.757 64.4493 125.844 65.2556C126.29 69.3754 128.162 73.055 131.822 75.0778C139.219 79.1653 147.835 73.1851 151.178 66.5C152.859 63.1381 153.994 59.6446 154.911 56.0111C155.706 52.8625 154.77 54.4255 154.511 56.5C153.12 67.6292 154.36 79.4755 155.4 90.5889C156.572 103.11 156.595 118.456 146.778 127.856C139.447 134.875 127.509 133.771 121.8 125.367C116.721 117.889 119.229 106.068 130.111 108.5C137.824 110.224 143.106 119.366 145.8 126.1" stroke="black" stroke-width="8" stroke-linecap="round"/>
<path d="M174.2 60.9C174.2 52.928 176.412 76.69 177.489 84.5889C179.337 98.141 181.49 111.706 183 125.3" stroke="black" stroke-width="8" stroke-linecap="round"/>
<path d="M178.2 72.9C179.32 72.9 180.256 73.4923 181.356 73.6112C185.958 74.1087 190.751 72.0983 194.511 69.6556C199.375 66.4958 204.781 59.8232 204.022 53.6556C203.025 45.5554 195.464 43.3318 188.2 43.7889C182.728 44.1333 177.776 46.2141 173.311 49.3445C168.723 52.5612 166.983 56.9556 165.4 62.1" stroke="black" stroke-width="8" stroke-linecap="round"/>
<path d="M219 50.9C217.001 59.8944 220.208 73.7294 231.622 72.0111C241.216 70.567 248.377 61.3079 250.578 52.3222C250.761 51.5754 251.448 47.9896 249.978 47.7223C247.94 47.3517 247.284 51.1149 247.089 52.5C246.3 58.1047 247.024 66.2495 252.2 69.7" stroke="black" stroke-width="8" stroke-linecap="round"/>
<path d="M281 54.5C282.387 55.8868 284.611 58.571 286.378 56.3C287.123 55.3415 286.402 53.0585 285.578 52.3445C284.083 51.0493 281.345 51.8991 279.756 52.4111C274.253 54.1841 268.473 62.308 271.867 68.0778C276.363 75.7218 287.565 74.0257 294.6 72.9" stroke="black" stroke-width="8" stroke-linecap="round"/>
<path d="M316.6 53.7C315.203 59.8105 317.174 78.7656 317 72.5C316.895 68.7195 313.968 65.2878 312 62.3C308.8 57.441 304.514 53.6719 299.889 50.1889C296.177 47.3936 291.633 45.5456 287.244 44.1222C283.981 43.0639 285.677 43.3343 288.333 42.9C300.927 40.8413 313.804 38.1 326.6 38.1" stroke="black" stroke-width="8" stroke-linecap="round"/>
<path d="M344.2 74.9C343.945 74.6128 343.913 74.4403 343.8 74.1" stroke="black" stroke-width="8" stroke-linecap="round"/>
<path d="M375.4 34.1C375.4 14.084 377.8 74.084 377.8 94.1" stroke="black" stroke-width="8" stroke-linecap="round"/>
<path d="M349 32.5C355.22 26.8453 366.974 25.3308 375.089 25.4778C385.175 25.6605 405.637 28.1417 409.956 40.1C412.187 46.2787 404.777 49.4219 400.178 50.9C395.594 52.3734 390.782 52.9487 386.044 53.7222C383.321 54.1668 378.846 55.8229 376.2 54.5" stroke="black" stroke-width="8" stroke-linecap="round"/>
<path d="M425 27.3C420.44 32.4304 425.204 41.8295 429.267 45.3889C435.344 50.7127 444.423 45.9429 449.356 41.4778C450.212 40.7024 456.867 33.0738 453.622 32.1889C449.099 30.9554 449.4 40.3685 449.4 42.4556C449.4 51.6441 450.639 61.9128 448.022 70.8111C445.838 78.2373 440.085 87.3223 431.267 86.8111C426.106 86.5119 415.775 81.2404 420.556 74.4111C425.265 67.684 433.949 70.0105 439 74.5" stroke="black" stroke-width="8" stroke-linecap="round"/>
<path d="M438.297 124.95C432.665 124.95 426.344 123.086 420.603 122.533C407.923 121.311 395.299 122.056 382.605 121.421C360.656 120.323 338.038 119.296 316.085 121.082C300.301 122.367 284.497 127.434 269.482 132.105C253.495 137.078 237.621 146.306 222.493 153.472C207.073 160.776 188.458 164.314 171.539 165.413C124.031 168.498 80.7435 152.296 36.2744 138.003" stroke="black" stroke-width="8" stroke-linecap="round"/>
</svg>
