<svg width="405" height="143" viewBox="0 0 405 143" fill="none" xmlns="http://www.w3.org/2000/svg">
<path d="M47.4 6.90001C44.858 6.90001 44.5951 9.47808 45.2 11.6556C45.7838 13.7573 46.4549 15.5281 47.9777 12.7C48.9564 10.8824 48.9607 7.26074 47.4 5.70001C44.2365 2.53654 41.2538 8.2643 40.6 10.5889C39.4936 14.5226 39.8342 18.5573 40.4222 22.5667C41.6269 30.7808 43.9018 38.8661 45.8444 46.9222C49.1053 60.4453 53.722 75.8778 50.1778 89.8333C49.4407 92.7355 46.2272 98.3363 42.2889 97.2111C41.0648 96.8614 38.6 96.5255 38.6 94.9" stroke="black" stroke-width="8" stroke-linecap="round"/>
<path d="M28.2001 52.1C21.2205 55.5898 5.23274 54.9208 4.66673 44.1667C4.4057 39.2072 10.1144 35.9282 13.8889 34.1889C21.7083 30.5859 30.6288 29.3992 38.9778 27.6778C49.3676 25.5355 60.9759 22.6653 71.6223 23.7667C76.1013 24.23 82.3514 26.3032 82.4223 31.8333C82.4996 37.868 75.2782 39.7 70.6001 39.7" stroke="black" stroke-width="8" stroke-linecap="round"/>
<path d="M72.2 78.1C72.0014 81.8731 71.2481 86.519 73.8889 89.7C77.54 94.098 85.6193 92.9576 89.8 89.9222C93.8244 87.0005 98.3753 81.7626 98.4222 76.4556C98.4731 70.7052 94.6593 67.2787 88.9778 66.9445C83.5606 66.6258 78.052 68.0507 74.2 72.0778C70.2721 76.1842 68.4682 81.8605 73.4 85.8334C78.0197 89.5548 86.1097 89.9469 91.8 90.7C98.8283 91.6302 105.938 93.0185 111.4 97.7" stroke="black" stroke-width="8" stroke-linecap="round"/>
<path d="M113 74.5C114.98 74.2525 118.116 70.0853 119.8 68.8111C120.123 68.5665 122.913 66.3023 123 67.3889C123.141 69.1476 121.852 71.4842 121.6 73.3C120.737 79.5103 121.838 86.9727 126.022 91.8334C130.038 96.4988 134.968 93.7906 138.667 90.1889C142.485 86.4708 146.504 80.552 147.378 75.1667C147.553 74.0837 147.381 68.1193 146.111 71.7889C145.051 74.8528 146.618 79.1245 147.244 82.1889C148.215 86.935 149.4 91.6286 149.4 96.5" stroke="black" stroke-width="8" stroke-linecap="round"/>
<path d="M166.2 69.3C166.498 74.66 168.017 80.4435 169.2 85.7C169.642 87.6633 170.142 89.6084 170.6 91.5667C170.685 91.932 171.726 95.2192 171.8 93.2111C172.11 84.8403 168.04 76.6464 167.422 68.3C167.38 67.729 166.953 62.9499 167.8 62.9C169.634 62.7921 171.383 66.4127 173.111 67.3222C177.268 69.5103 180.662 68.8173 184.6 66.8111C186.578 65.8037 190.423 63.4578 189.4 60.9" stroke="black" stroke-width="8" stroke-linecap="round"/>
<path d="M203.4 64.5C203.4 63.2413 203.096 62.1896 203 60.9889C202.968 60.5882 202.143 66.2249 202.222 67.7222C202.555 74.0513 203.445 81.3475 207.378 86.5445C211.045 91.3908 217.496 90.295 222.2 88.1" stroke="black" stroke-width="8" stroke-linecap="round"/>
<path d="M202.2 42.9C201.62 42.8276 201.8 42.1491 201.8 41.7" stroke="black" stroke-width="8" stroke-linecap="round"/>
<path d="M247 56.9C248.568 56.9 249.356 55.4344 249.356 53.9445C249.356 51.1454 245.019 52.516 243.8 52.9222C240.631 53.9785 237.978 57.1527 236.867 60.1445C235.425 64.0263 238.727 66.6804 241.8 68.1889C248.311 71.3855 255.305 71.262 261.178 76.1222C264.096 78.5373 269.105 85.5759 264.978 88.8778C261.178 91.9176 253.034 90.6888 249 88.8111C246.137 87.4783 244.591 85.3043 247.8 83.7" stroke="black" stroke-width="8" stroke-linecap="round"/>
<path d="M270.2 39.7C275.923 33.9772 284.399 21.9139 276.511 14.5889C273.774 12.0475 270.807 15.446 269.889 17.8333C268.117 22.4403 270.234 28.5639 271.889 32.9C276.589 45.2167 286.298 54.8424 291.311 66.9889C292.737 70.4447 293.594 74.6533 292.911 78.4111C292.561 80.3346 291.356 81.6406 293 78.9" stroke="black" stroke-width="8" stroke-linecap="round"/>
<path d="M273 65.3C273 63.8539 274.496 60.4423 276.244 61.1222C281.458 63.1496 285 66.9822 290.911 67.2778C295.451 67.5047 299.604 65.8363 302.422 62.1889C303.62 60.6391 303.437 57.8092 301.4 57.3" stroke="black" stroke-width="8" stroke-linecap="round"/>
<path d="M310.2 84.5C311.092 84.3885 310.278 83.5391 311.4 84.1" stroke="black" stroke-width="8" stroke-linecap="round"/>
<path d="M335.4 55.7C332.09 55.2863 336.279 78.1486 337.089 81.3C337.416 82.5721 337.62 82.2885 337.178 81.2778C336.328 79.3361 335.317 77.3735 334.222 75.5667C331.901 71.7361 328.245 66.9506 328.245 62.2778C328.245 56.0783 337.117 47.937 340.8 56.1222C342.483 59.8615 345.226 62.9846 349.622 62.4111C353.277 61.9345 357.9 57.3991 359 54.1" stroke="black" stroke-width="8" stroke-linecap="round"/>
<path d="M369 60.9C369.337 57.8706 372.519 55.452 374.2 53.2111C377.53 48.7716 375.375 56.9338 375 58.5C373.569 64.4753 372.684 72.2322 375.222 78.0555C377.587 83.4804 383.678 81.3612 387 78.1C392.231 72.9641 396.299 67.0645 398.822 60.1444C399.289 58.8653 401.969 51.8849 400.511 50.5889C399.62 49.7968 397.334 63.2664 397.489 65.2555C397.822 69.5417 398.2 73.8032 398.2 78.1" stroke="black" stroke-width="8" stroke-linecap="round"/>
<path d="M42.6 138.5C43.5061 138.5 43.7594 138.042 44.4222 137.5C46.6142 135.707 49.209 133.998 51.6222 132.5C60.2527 127.143 68.3693 121.769 77.8 117.789C102.512 107.36 130.633 108.434 156.6 112.7C173.789 115.524 190.638 119.962 207.8 122.9C219.887 124.969 232.108 126.688 244.4 126.478C254.126 126.312 263.961 125.351 273.622 124.278C294.895 121.914 315.487 117.851 335.844 111.256C350.823 106.403 366.488 101.135 380.2 93.3" stroke="black" stroke-width="8" stroke-linecap="round"/>
</svg>
