<svg width="459" height="169" viewBox="0 0 459 169" fill="none" xmlns="http://www.w3.org/2000/svg">
<path d="M44.029 4C39.7896 4.47104 46.9253 36.6448 47.3623 38.9333C50.3215 54.43 54.4094 70.8674 52.429 86.7111C51.8531 91.3181 49.7264 97.5153 44.829 99.1111C40.6382 100.477 36.7934 99.3543 32.9179 97.5111C32.3891 97.2596 19.6346 90.1589 24.429 89.2" stroke="white" stroke-width="8" stroke-linecap="round"/>
<path d="M66.8291 26.8C66.995 28.4588 67.7475 30.1972 68.0291 31.8667C68.8751 36.8821 69.5858 41.899 70.8069 46.8445C72.8839 55.2565 75.7532 63.4483 79.6291 71.2001" stroke="white" stroke-width="8" stroke-linecap="round"/>
<path d="M91.229 23.2C92.8683 39.5925 93.8423 55.2214 102.829 69.5999" stroke="white" stroke-width="8" stroke-linecap="round"/>
<path d="M50.429 55.5999C41.8056 58.9585 33.3581 61.073 24.429 57.7777C18.1111 55.4461 10.5131 52.0304 6.67344 46.1999C3.44391 41.2958 5.31938 34.6987 8.65122 30.3555C14.0711 23.2903 21.737 18.5686 30.429 16.7999C54.3479 11.9327 71.1379 32.7289 93.2512 36.8888C106.646 39.4087 129.229 30.4323 129.229 14.3999" stroke="white" stroke-width="8" stroke-linecap="round"/>
<path d="M126.829 61.6C125.672 61.7286 125.986 63.5494 126.073 64.3556C126.519 68.4754 128.391 72.155 132.051 74.1778C139.448 78.2653 148.064 72.2852 151.407 65.6001C153.088 62.2381 154.223 58.7447 155.14 55.1112C155.935 51.9626 154.999 53.5256 154.74 55.6C153.349 66.7293 154.589 78.5756 155.629 89.6889C156.801 102.21 156.824 117.556 147.007 126.956C139.676 133.975 127.738 132.871 122.029 124.467C116.95 116.989 119.458 105.168 130.34 107.6C138.053 109.324 143.335 118.466 146.029 125.2" stroke="white" stroke-width="8" stroke-linecap="round"/>
<path d="M174.429 60C174.429 52.028 176.641 75.79 177.718 83.6889C179.566 97.241 181.719 110.806 183.229 124.4" stroke="white" stroke-width="8" stroke-linecap="round"/>
<path d="M178.429 72C179.549 72 180.485 72.5923 181.584 72.7111C186.187 73.2087 190.98 71.1983 194.74 68.7556C199.604 65.5958 205.01 58.9231 204.251 52.7556C203.254 44.6553 195.693 42.4317 188.429 42.8889C182.957 43.2333 178.005 45.3141 173.54 48.4445C168.952 51.6611 167.212 56.0556 165.629 61.2" stroke="white" stroke-width="8" stroke-linecap="round"/>
<path d="M219.229 49.9999C217.23 58.9943 220.437 72.8294 231.851 71.111C241.445 69.6669 248.606 60.4079 250.807 51.4222C250.99 50.6753 251.677 47.0895 250.207 46.8222C248.169 46.4516 247.513 50.2148 247.318 51.5999C246.529 57.2046 247.253 65.3494 252.429 68.7999" stroke="white" stroke-width="8" stroke-linecap="round"/>
<path d="M281.229 53.5999C282.616 54.9867 284.84 57.6709 286.607 55.3999C287.352 54.4414 286.631 52.1584 285.807 51.4444C284.312 50.1492 281.574 50.999 279.985 51.511C274.482 53.284 268.702 61.4079 272.096 67.1777C276.592 74.8217 287.794 73.1256 294.829 71.9999" stroke="white" stroke-width="8" stroke-linecap="round"/>
<path d="M316.829 52.8C315.432 58.9105 317.403 77.8656 317.229 71.6C317.124 67.8195 314.197 64.3878 312.229 61.4C309.029 56.5409 304.743 52.7719 300.118 49.2888C296.406 46.4936 291.862 44.6456 287.473 43.2222C284.21 42.1638 285.906 42.4342 288.562 41.9999C301.157 39.9412 314.033 37.2 326.829 37.2" stroke="white" stroke-width="8" stroke-linecap="round"/>
<path d="M344.429 73.9999C344.174 73.7128 344.142 73.5402 344.029 73.2" stroke="white" stroke-width="8" stroke-linecap="round"/>
<path d="M375.629 33.2C375.629 13.184 378.029 73.184 378.029 93.2" stroke="white" stroke-width="8" stroke-linecap="round"/>
<path d="M349.229 31.6C355.449 25.9453 367.203 24.4308 375.318 24.5778C385.404 24.7605 405.866 27.2417 410.185 39.2C412.416 45.3787 405.006 48.5218 400.407 50C395.823 51.4734 391.011 52.0487 386.273 52.8222C383.55 53.2668 379.075 54.9228 376.429 53.6" stroke="white" stroke-width="8" stroke-linecap="round"/>
<path d="M425.229 26.4C420.669 31.5304 425.433 40.9295 429.496 44.4889C435.573 49.8127 444.652 45.0429 449.585 40.5778C450.441 39.8024 457.096 32.1738 453.851 31.2889C449.329 30.0554 449.629 39.4685 449.629 41.5555C449.629 50.7441 450.869 61.0128 448.251 69.9111C446.067 77.3373 440.314 86.4223 431.496 85.9111C426.335 85.6119 416.004 80.3404 420.785 73.5111C425.494 66.784 434.178 69.1104 439.229 73.6" stroke="white" stroke-width="8" stroke-linecap="round"/>
<path d="M438.526 124.05C432.894 124.05 426.573 122.186 420.832 121.633C408.152 120.411 395.528 121.156 382.834 120.521C360.885 119.423 338.267 118.396 316.314 120.182C300.53 121.467 284.726 126.534 269.711 131.205C253.724 136.178 237.85 145.406 222.722 152.572C207.302 159.876 188.687 163.414 171.768 164.513C124.26 167.598 80.9725 151.396 36.5034 137.103" stroke="white" stroke-width="8" stroke-linecap="round"/>
</svg>
