<svg width="405" height="143" viewBox="0 0 405 143" fill="none" xmlns="http://www.w3.org/2000/svg">
<path d="M46.7419 7.13063C44.1999 7.13063 43.937 9.7087 44.5419 11.8862C45.1257 13.9879 45.7969 15.7588 47.3197 12.9306C48.2983 11.1131 48.3026 7.49136 46.7419 5.93063C43.5784 2.76716 40.5957 8.49492 39.9419 10.8195C38.8355 14.7532 39.1761 18.788 39.7641 22.7973C40.9689 31.0115 43.2437 39.0967 45.1863 47.1529C48.4472 60.6759 53.064 76.1084 49.5197 90.064C48.7826 92.9662 45.5691 98.567 41.6308 97.4417C40.4067 97.092 37.9419 96.7561 37.9419 95.1306" stroke="white" stroke-width="8" stroke-linecap="round"/>
<path d="M27.542 52.3307C20.5624 55.8205 4.57466 55.1515 4.00864 44.3974C3.74762 39.4379 9.45628 36.1588 13.2309 34.4196C21.0502 30.8165 29.9707 29.6299 38.3198 27.9085C48.7096 25.7662 60.3178 22.896 70.9642 23.9973C75.4432 24.4607 81.6933 26.5338 81.7642 32.064C81.8416 38.0987 74.6202 39.9307 69.942 39.9307" stroke="white" stroke-width="8" stroke-linecap="round"/>
<path d="M71.5419 78.3307C71.3433 82.1037 70.59 86.7497 73.2308 89.9307C76.882 94.3287 84.9612 93.1882 89.1419 90.1529C93.1663 87.2311 97.7172 81.9933 97.7641 76.6862C97.815 70.9358 94.0013 67.5093 88.3197 67.1751C82.9026 66.8565 77.3939 68.2814 73.5419 72.3084C69.614 76.4149 67.8101 82.0911 72.7419 86.064C77.3617 89.7855 85.4516 90.1775 91.1419 90.9307C98.1702 91.8609 105.28 93.2492 110.742 97.9307" stroke="white" stroke-width="8" stroke-linecap="round"/>
<path d="M112.342 74.7306C114.322 74.4831 117.458 70.3159 119.142 69.0417C119.465 68.7971 122.255 66.5329 122.342 67.6195C122.482 69.3782 121.194 71.7148 120.942 73.5306C120.079 79.7409 121.18 87.2033 125.364 92.0639C129.38 96.7293 134.309 94.0212 138.008 90.4195C141.827 86.7014 145.846 80.7826 146.72 75.3973C146.895 74.3143 146.723 68.3499 145.453 72.0195C144.392 75.0834 145.959 79.355 146.586 82.4195C147.557 87.1655 148.742 91.8592 148.742 96.7306" stroke="white" stroke-width="8" stroke-linecap="round"/>
<path d="M165.542 69.5306C165.84 74.8906 167.359 80.6741 168.542 85.9306C168.984 87.8939 169.484 89.839 169.942 91.7973C170.027 92.1626 171.068 95.4498 171.142 93.4417C171.452 85.0709 167.382 76.877 166.764 68.5306C166.722 67.9596 166.295 63.1804 167.142 63.1306C168.976 63.0227 170.725 66.6433 172.453 67.5528C176.61 69.7409 180.004 69.0479 183.942 67.0417C185.92 66.0343 189.765 63.6884 188.742 61.1306" stroke="white" stroke-width="8" stroke-linecap="round"/>
<path d="M202.742 64.7307C202.742 63.472 202.438 62.4203 202.342 61.2196C202.31 60.8188 201.485 66.4556 201.564 67.9529C201.897 74.2819 202.787 81.5782 206.72 86.7751C210.387 91.6215 216.838 90.5257 221.542 88.3307" stroke="white" stroke-width="8" stroke-linecap="round"/>
<path d="M201.542 43.1307C200.962 43.0582 201.142 42.3797 201.142 41.9307" stroke="white" stroke-width="8" stroke-linecap="round"/>
<path d="M246.342 57.1306C247.909 57.1306 248.697 55.665 248.697 54.175C248.697 51.376 244.36 52.7466 243.142 53.1528C239.973 54.2091 237.32 57.3833 236.208 60.375C234.767 64.2569 238.069 66.911 241.142 68.4195C247.653 71.616 254.647 71.4926 260.52 76.3528C263.438 78.7679 268.447 85.8065 264.32 89.1084C260.52 92.1482 252.375 90.9194 248.342 89.0417C245.479 87.7088 243.933 85.5349 247.142 83.9306" stroke="white" stroke-width="8" stroke-linecap="round"/>
<path d="M269.542 39.9306C275.265 34.2078 283.741 22.1445 275.853 14.8195C273.116 12.2781 270.149 15.6766 269.231 18.064C267.459 22.6709 269.576 28.7945 271.231 33.1306C275.931 45.4473 285.64 55.073 290.653 67.2195C292.079 70.6753 292.936 74.8839 292.253 78.6417C291.903 80.5652 290.698 81.8712 292.342 79.1306" stroke="white" stroke-width="8" stroke-linecap="round"/>
<path d="M272.342 65.5306C272.342 64.0845 273.838 60.673 275.586 61.3529C280.8 63.3803 284.342 67.2129 290.253 67.5084C294.792 67.7354 298.946 66.0669 301.764 62.4195C302.962 60.8697 302.779 58.0399 300.742 57.5306" stroke="white" stroke-width="8" stroke-linecap="round"/>
<path d="M309.542 84.7307C310.434 84.6191 309.62 83.7697 310.742 84.3307" stroke="white" stroke-width="8" stroke-linecap="round"/>
<path d="M334.742 55.9306C331.432 55.5169 335.621 78.3792 336.431 81.5307C336.758 82.8028 336.962 82.5192 336.52 81.5084C335.67 79.5667 334.659 77.6041 333.564 75.7973C331.243 71.9668 327.586 67.1813 327.586 62.5084C327.586 56.309 336.459 48.1676 340.142 56.3529C341.825 60.0922 344.568 63.2152 348.964 62.6418C352.618 62.1651 357.242 57.6298 358.342 54.3307" stroke="white" stroke-width="8" stroke-linecap="round"/>
<path d="M368.342 61.1306C368.678 58.1012 371.861 55.6826 373.542 53.4417C376.872 49.0022 374.717 57.1643 374.342 58.7306C372.911 64.7059 372.026 72.4627 374.564 78.2861C376.929 83.711 383.02 81.5918 386.342 78.3306C391.573 73.1947 395.641 67.2951 398.164 60.375C398.63 59.0959 401.311 52.1155 399.853 50.8195C398.962 50.0274 396.676 63.497 396.831 65.4861C397.164 69.7723 397.542 74.0338 397.542 78.3306" stroke="white" stroke-width="8" stroke-linecap="round"/>
<path d="M41.9419 138.731C42.848 138.731 43.1013 138.273 43.7641 137.731C45.9561 135.937 48.5509 134.229 50.9641 132.731C59.5947 127.374 67.7113 121.999 77.1419 118.02C101.854 107.591 129.975 108.665 155.942 112.931C173.131 115.755 189.98 120.192 207.142 123.131C219.229 125.2 231.45 126.919 243.742 126.708C253.468 126.542 263.303 125.582 272.964 124.508C294.237 122.145 314.829 118.082 335.186 111.486C350.165 106.633 365.83 101.366 379.542 93.5306" stroke="white" stroke-width="8" stroke-linecap="round"/>
</svg>
